# File created by Blade
# Date/Time:  Thu Jan 22 19:18:24 2015
#---------------------------------------------------------
:version 1.10
:name HOM
:units
  mass 1.0
  length 1.000000
  angle deg
:documentation
     Acclaim Skeleton File
:root
   axis xyz
   order TX TY TZ RX RY RZ
   position 0.000000 0.000000 0.000000
   orientation 0 0 0
:bonedata
   begin
      id 1
      name RightUpLeg_dum
      direction -1.000000 0.000000 0.000000
      length 4.478084
      axis 0.0 0.0 0.0 xyz
   end
   begin
      id 2
      name LeftUpLeg_dum
      direction 1.000000 0.000000 0.000000
      length 4.478084
      axis 0.0 0.0 0.0 xyz
   end
   begin
      id 3
      name Spine_dum
      direction 0.000000 1.000000 0.000000
      length 6.068208
      axis 0.0 0.0 0.0 xyz
   end
   begin
      id 4
      name RightUpLeg
      direction 0.000000 -1.000000 0.000000
      length 16.405774
      axis 0.0 0.0 0.0 xyz
      dof rx ry rz
   end
   begin
      id 5
      name RightLeg
      direction 0.000000 -1.000000 0.000000
      length 14.644143
      axis 0.0 0.0 0.0 xyz
      dof rx ry rz
   end
   begin
      id 6
      name RightFoot
      direction 0.000000 -0.258819 0.965926
      length 5.806150
      axis 15.0 0.0 0.0 xyz
      dof rx ry rz
   end
   begin
      id 7
      name RightToeBase
      direction 0.000000 0.000000 1.000000
      length 2.952750
      axis 0.0 0.0 0.0 xyz
      dof rx ry rz
   end
   begin
      id 8
      name LeftUpLeg
      direction 0.000000 -1.000000 0.000000
      length 16.405774
      axis 0.0 0.0 0.0 xyz
      dof rx ry rz
   end
   begin
      id 9
      name LeftLeg
      direction 0.000000 -1.000000 0.000000
      length 14.644143
      axis 0.0 0.0 0.0 xyz
      dof rx ry rz
   end
   begin
      id 10
      name LeftFoot
      direction 0.000000 -0.258819 0.965926
      length 5.806150
      axis 15.0 0.0 0.0 xyz
      dof rx ry rz
   end
   begin
      id 11
      name LeftToeBase
      direction 0.000000 0.000000 1.000000
      length 2.952750
      axis 0.0 0.0 0.0 xyz
      dof rx ry rz
   end
   begin
      id 12
      name Spine
      direction 0.000000 1.000000 0.000000
      length 0.000000
      axis 0.0 0.0 0.0 xyz
      dof rx ry rz
   end
   begin
      id 13
      name Spine_dum1
      direction 0.000000 1.000000 0.000000
      length 10.013923
      axis 0.0 0.0 0.0 xyz
   end
   begin
      id 14
      name Spine_dum2
      direction 0.000000 1.000000 0.000000
      length 10.013923
      axis 0.0 0.0 0.0 xyz
   end
   begin
      id 15
      name Spine_dum3
      direction 0.000000 1.000000 0.000000
      length 15.777476
      axis 0.0 0.0 0.0 xyz
   end
   begin
      id 16
      name RightShoulder
      direction -1.000000 0.000000 0.000000
      length 7.190220
      axis 0.0 0.0 90.0 xyz
      dof rx ry rz
   end
   begin
      id 17
      name RightArm
      direction -1.000000 0.000000 0.000000
      length 10.177469
      axis 0.0 0.0 90.0 xyz
      dof rx ry rz
   end
   begin
      id 18
      name RightForeArm
      direction -1.000000 0.000000 0.000000
      length 8.392114
      axis 0.0 0.0 90.0 xyz
      dof ry rz rx
   end
   begin
      id 19
      name RightHand
      direction -1.000000 0.000000 0.000000
      length 0.000000
      axis 0.0 0.0 90.0 xyz
      dof rx ry rz
   end
   begin
      id 20
      name RightHand_dum1
      direction -1.000000 0.000000 0.000000
      length 3.937000
      axis 0.0 0.0 90.0 xyz
   end
   begin
      id 21
      name RightHand_dum2
      direction 0.000000 0.000000 0.000000
      length 0.000000
      axis 0.0 0.0 90.0 xyz
   end
   begin
      id 22
      name RightHandThumb1
      direction 0.000000 0.000000 1.000000
      length 3.937000
      axis 0.0 0.0 90.0 xyz
      dof rx rz ry
   end
   begin
      id 23
      name LeftShoulder
      direction 1.000000 0.000000 0.000000
      length 7.190220
      axis 0.0 0.0 -90.0 xyz
      dof rx ry rz
   end
   begin
      id 24
      name LeftArm
      direction 1.000000 0.000000 0.000000
      length 10.177469
      axis 0.0 0.0 -90.0 xyz
      dof rx ry rz
   end
   begin
      id 25
      name LeftForeArm
      direction 1.000000 0.000000 0.000000
      length 8.392114
      axis 0.0 0.0 -90.0 xyz
      dof ry rz rx
   end
   begin
      id 26
      name LeftHand
      direction 1.000000 0.000000 0.000000
      length 0.000000
      axis 0.0 0.0 -90.0 xyz
      dof rx ry rz
   end
   begin
      id 27
      name LeftHand_dum1
      direction 1.000000 0.000000 0.000000
      length 3.937000
      axis 0.0 0.0 -90.0 xyz
   end
   begin
      id 28
      name LeftHand_dum2
      direction 0.000000 0.000000 0.000000
      length 0.000000
      axis 0.0 0.0 -90.0 xyz
   end
   begin
      id 29
      name LeftHandThumb1
      direction 0.000000 0.000000 1.000000
      length 3.937000
      axis 0.0 0.0 -90.0 xyz
      dof rx rz ry
   end
   begin
      id 30
      name Head
      direction 0.000000 1.000000 0.000000
      length 4.527550
      axis 0.0 0.0 0.0 xyz
      dof rx ry rz
   end
:hierarchy
   begin
      root RightUpLeg_dum LeftUpLeg_dum Spine_dum
      RightUpLeg_dum RightUpLeg
      LeftUpLeg_dum LeftUpLeg
      Spine_dum Spine
      RightUpLeg RightLeg
      RightLeg RightFoot
      RightFoot RightToeBase
      LeftUpLeg LeftLeg
      LeftLeg LeftFoot
      LeftFoot LeftToeBase
      Spine Spine_dum1 Spine_dum2 Spine_dum3
      Spine_dum1 RightShoulder
      Spine_dum2 LeftShoulder
      Spine_dum3 Head
      RightShoulder RightArm
      RightArm RightForeArm
      RightForeArm RightHand
      RightHand RightHand_dum1 RightHand_dum2
      RightHand_dum2 RightHandThumb1
      LeftShoulder LeftArm
      LeftArm LeftForeArm
      LeftForeArm LeftHand
      LeftHand LeftHand_dum1 LeftHand_dum2
      LeftHand_dum2 LeftHandThumb1
   end

# File created by Blade
# Date/Time:  Thu Jan 22 19:18:16 2015
# Frame Rate: 120.000 fps
#------------------------------------------------------
:FULLY-SPECIFIED
:DEGREES
105
root -1.332274 33.049322 -0.699022 8.017079 -3.069740 2.315661
RightUpLeg -2.524773 -8.452097 -4.744256
RightLeg -0.297861 -0.000000 0.000000
RightFoot -10.634907 -3.076587 6.392062
RightToeBase 6.188469 -0.000000 -0.000000
LeftUpLeg -2.244544 7.094448 4.898113
LeftLeg 1.559282 -0.000000 -0.000000
LeftFoot -9.468138 0.698763 -20.245759
LeftToeBase 8.369489 -0.000000 -0.000000
Spine -8.927885 -2.396163 -1.553617
RightShoulder -18.710323 -10.928069 -25.558848
RightArm 23.662546 27.091660 39.892853
RightForeArm -15.731263 -0.000000 10.207883
RightHand 11.215153 -0.000000 9.474494
RightHandThumb1 -24.326973 -0.000000 -32.862282
LeftShoulder -23.816590 5.796408 30.298037
LeftArm 16.459729 -28.820419 -35.026134
LeftForeArm 24.889066 -0.000000 0.253681
LeftHand -2.326357 -0.000000 -9.425807
LeftHandThumb1 -26.253704 0.000000 33.147579
Head -2.044946 3.127828 1.541352
106
root -1.334515 33.048363 -0.698884 8.018245 -3.051866 2.315839
RightUpLeg -2.518018 -8.476271 -4.741868
RightLeg -0.304859 -0.000000 0.000000
RightFoot -10.633873 -3.053723 6.395795
RightToeBase 6.164487 -0.000000 -0.000000
LeftUpLeg -2.263012 7.082198 4.903341
LeftLeg 1.588187 -0.000000 -0.000000
LeftFoot -9.487102 0.694751 -20.236776
LeftToeBase 8.363982 -0.000000 -0.000000
Spine -8.937380 -2.397137 -1.561554
RightShoulder -18.748977 -10.994368 -25.570610
RightArm 23.725189 27.128256 39.994707
RightForeArm -15.773337 -0.000000 10.273929
RightHand 11.029869 -0.000000 9.455388
RightHandThumb1 -24.326973 -0.000000 -32.862282
LeftShoulder -23.804042 5.778656 30.313015
LeftArm 16.427465 -28.765224 -34.991127
LeftForeArm 24.843495 -0.000000 0.278686
LeftHand -2.328605 0.000000 -9.431512
LeftHandThumb1 -26.253704 0.000000 33.147579
Head -2.034256 3.213390 1.552288
107
root -1.335935 33.048320 -0.699509 8.015356 -3.041719 2.321528
RightUpLeg -2.513208 -8.497743 -4.750222
RightLeg -0.303900 -0.000000 0.000000
RightFoot -10.644202 -3.016287 6.409341
RightToeBase 6.201169 -0.000000 -0.000000
LeftUpLeg -2.278938 7.078860 4.901154
LeftLeg 1.619858 -0.000000 -0.000000
LeftFoot -9.494984 0.687939 -20.220462
LeftToeBase 8.373732 -0.000000 -0.000000
Spine -8.939965 -2.394619 -1.575117
RightShoulder -18.748570 -10.983450 -25.560615
RightArm 23.697264 27.094089 39.952147
RightForeArm -15.677698 0.000000 10.269933
RightHand 11.101828 -0.000000 9.568413
RightHandThumb1 -24.326973 -0.000000 -32.862282
LeftShoulder -23.804493 5.784576 30.305058
LeftArm 16.430766 -28.746832 -34.965847
LeftForeArm 24.813490 -0.000000 0.302647
LeftHand -2.311674 -0.000000 -9.439646
LeftHandThumb1 -26.253704 0.000000 33.147579
Head -2.012058 3.219846 1.535196
108
root -1.335783 33.048485 -0.700283 8.008547 -3.016111 2.325929
RightUpLeg -2.499112 -8.492927 -4.760632
RightLeg -0.306728 -0.000000 0.000000
RightFoot -10.646716 -3.021474 6.425315
RightToeBase 6.218408 -0.000000 -0.000000
LeftUpLeg -2.296627 7.073023 4.900413
LeftLeg 1.653881 -0.000000 -0.000000
LeftFoot -9.496649 0.662549 -20.208180
LeftToeBase 8.359323 -0.000000 -0.000000
Spine -8.934449 -2.410545 -1.582702
RightShoulder -18.760699 -11.010500 -25.552246
RightArm 23.710680 27.123733 39.989905
RightForeArm -15.749673 -0.000000 10.299746
RightHand 11.123823 -0.000000 9.441788
RightHandThumb1 -24.326973 -0.000000 -32.862282
LeftShoulder -23.805338 5.794369 30.301228
LeftArm 16.422816 -28.758592 -34.959680
LeftForeArm 24.858327 -0.000000 0.355540
LeftHand -2.300393 -0.000000 -9.471811
LeftHandThumb1 -26.253704 0.000000 33.147579
Head -2.001052 3.227790 1.515975
109
root -1.334706 33.048354 -0.700562 7.994014 -3.002198 2.331130
RightUpLeg -2.488038 -8.530575 -4.772754
RightLeg -0.292838 -0.000000 0.000000
RightFoot -10.649455 -2.969389 6.468512
RightToeBase 6.187715 -0.000000 -0.000000
LeftUpLeg -2.308939 7.063108 4.894897
LeftLeg 1.701823 -0.000000 -0.000000
LeftFoot -9.517614 0.657727 -20.213201
LeftToeBase 8.361421 -0.000000 -0.000000
Spine -8.915234 -2.413180 -1.597500
RightShoulder -18.782172 -11.021872 -25.536436
RightArm 23.727563 27.128534 39.994842
RightForeArm -15.723824 0.000000 10.348087
RightHand 10.967068 -0.000000 9.524117
RightHandThumb1 -24.326973 -0.000000 -32.862282
LeftShoulder -23.826776 5.804995 30.308199
LeftArm 16.448634 -28.746996 -34.973304
LeftForeArm 24.864430 -0.000000 0.381854
LeftHand -2.333637 0.000000 -9.434455
LeftHandThumb1 -26.253704 0.000000 33.147579
Head -2.000202 3.254070 1.491178
